                       $$TheAaax9$$

Ocean's Eleven [Dual-Audio][Hindi-English]by_TheAaax9

All in one screenshots :-
 
http://shareimage.org/images/ziywmqdmyur1iz6alqwk.jpg

Screen shots:-
 
http://shareimage.org/images/cbf93b14d1qe3gmphq7a.png
 
http://shareimage.org/images/itj7x0o8sg71v43c0q8q.png
 
http://shareimage.org/images/2dwtuysem3e9ttb7hd.png
 
http://shareimage.org/images/1mpo9t0s7afizeegqqsp.png
 
http://shareimage.org/images/ful7wbm17a5wxs3prq3o.png

General
Complete name                    : Ocean's Eleven [Dual-Audio][Hindi-English]by_TheAaax9
Format                           : Matroska
File size                        : 850 MiB
Duration                         : 1h 51mn
Overall bit rate                 : 1 063 Kbps
Movie name                       : Ocean's11 Hindi present by TheAaax9
Writing application              : AVI-Mux GUI 1.17.8.3, Feb 16 201019:42:50
Writing library                  : matroska muxer by Alexander Noe, build date Feb 16 2010

Video
Format                           : MPEG-4 Visual
Format settings, Matrix          : Default (H.263)
Codec ID                         : DX50
Codec ID/Hint                    : DivX 5
Duration                         : 1h 51mn
Bit rate                         : 738 Kbps
Width                            : 608 pixels
Height                           : 246 pixels
Display aspect ratio             : 2.472
Frame rate                       : 25.000 fps
Resolution                       : 24 bits
Colorimetry                      : 4:2:0
Bits/(Pixel*Frame)               : 0.197
Stream size                      : 590 MiB (69%)
Writing library                  : XviD 1.0.3 (UTC 2004-12-20)

Audio #1
ID                               : 2
Format version                   : Version 1
Format profile                   : Layer 3
Codec ID                         : A_MPEG/L3
Codec ID/Hint                    : MP3
Duration                         : 1h 51mn
Bit rate mode                    : Constant
Bit rate                         : 192 Kbps
Channel(s)                       : 2 channels
Sampling rate                    : 44.1 KHz
Resolution                       : 16 bits
Stream size                      : 154 MiB (18%)
Title                            : TheAaax9
Language                         : Hindi

Audio #2
Format                           : MPEG Audio
Format version                   : Version 1
Format profile                   : Layer 3
Codec ID                         : MP3
Duration                         : 1h 51mn
Bit rate                         : 112 Kbps
Channel(s)                       : 2 channels
Sampling rate                    : 48.0 KHz
Resolution                       : 16 bits
Stream size                      : 89.6 MiB (11%)
Language                         : English

                      $$TheAaax9$$

